<mxfile host="Electron" agent="Mozilla/5.0 (Windows NT 10.0; Win64; x64) AppleWebKit/537.36 (KHTML, like Gecko) draw.io/27.0.9 Chrome/134.0.6998.205 Electron/35.4.0 Safari/537.36" version="27.0.9">
  <diagram name="PÃ¡gina-1" id="26XTWYX74T7SAJTYcgnQ">
    <mxGraphModel dx="449" dy="832" grid="1" gridSize="10" guides="1" tooltips="1" connect="1" arrows="1" fold="1" page="1" pageScale="1" pageWidth="827" pageHeight="1169" math="0" shadow="0">
      <root>
        <mxCell id="0" />
        <mxCell id="1" parent="0" />
        <mxCell id="7es2Og_TsPADrQwQ1PT1-1" value="cafeteria" style="rounded=0;whiteSpace=wrap;html=1;" parent="1" vertex="1">
          <mxGeometry x="130" y="330" width="120" height="60" as="geometry" />
        </mxCell>
        <mxCell id="7es2Og_TsPADrQwQ1PT1-2" value="direccion" style="ellipse;whiteSpace=wrap;html=1;" parent="1" vertex="1">
          <mxGeometry x="30" y="180" width="100" height="70" as="geometry" />
        </mxCell>
        <mxCell id="7es2Og_TsPADrQwQ1PT1-3" value="nombre" style="ellipse;whiteSpace=wrap;html=1;" parent="1" vertex="1">
          <mxGeometry x="170" y="160" width="100" height="70" as="geometry" />
        </mxCell>
        <mxCell id="7es2Og_TsPADrQwQ1PT1-4" value="calificacion" style="ellipse;whiteSpace=wrap;html=1;" parent="1" vertex="1">
          <mxGeometry x="300" y="190" width="100" height="70" as="geometry" />
        </mxCell>
        <mxCell id="7es2Og_TsPADrQwQ1PT1-7" value="nombre del cafe" style="ellipse;whiteSpace=wrap;html=1;" parent="1" vertex="1">
          <mxGeometry x="590" y="50" width="100" height="70" as="geometry" />
        </mxCell>
        <mxCell id="7es2Og_TsPADrQwQ1PT1-8" value="precio" style="ellipse;whiteSpace=wrap;html=1;" parent="1" vertex="1">
          <mxGeometry x="890" y="50" width="100" height="70" as="geometry" />
        </mxCell>
        <mxCell id="7es2Og_TsPADrQwQ1PT1-10" value="cafe" style="rounded=0;whiteSpace=wrap;html=1;" parent="1" vertex="1">
          <mxGeometry x="710" y="140" width="120" height="40" as="geometry" />
        </mxCell>
        <mxCell id="7es2Og_TsPADrQwQ1PT1-11" value="tiene" style="rhombus;whiteSpace=wrap;html=1;" parent="1" vertex="1">
          <mxGeometry x="374" y="320" width="80" height="80" as="geometry" />
        </mxCell>
        <mxCell id="7es2Og_TsPADrQwQ1PT1-17" value="" style="endArrow=none;html=1;rounded=0;exitX=1;exitY=0.5;exitDx=0;exitDy=0;entryX=0.25;entryY=1;entryDx=0;entryDy=0;" parent="1" source="7es2Og_TsPADrQwQ1PT1-11" target="7es2Og_TsPADrQwQ1PT1-10" edge="1">
          <mxGeometry width="50" height="50" relative="1" as="geometry">
            <mxPoint x="490" y="410" as="sourcePoint" />
            <mxPoint x="530" y="360" as="targetPoint" />
          </mxGeometry>
        </mxCell>
        <mxCell id="7es2Og_TsPADrQwQ1PT1-18" value="" style="endArrow=none;html=1;rounded=0;exitX=1;exitY=0.5;exitDx=0;exitDy=0;" parent="1" source="7es2Og_TsPADrQwQ1PT1-1" edge="1">
          <mxGeometry width="50" height="50" relative="1" as="geometry">
            <mxPoint x="324" y="410" as="sourcePoint" />
            <mxPoint x="374" y="360" as="targetPoint" />
          </mxGeometry>
        </mxCell>
        <mxCell id="7es2Og_TsPADrQwQ1PT1-20" value="" style="endArrow=none;html=1;rounded=0;exitX=0;exitY=0;exitDx=0;exitDy=0;" parent="1" source="7es2Og_TsPADrQwQ1PT1-1" edge="1">
          <mxGeometry width="50" height="50" relative="1" as="geometry">
            <mxPoint x="30" y="300" as="sourcePoint" />
            <mxPoint x="80" y="250" as="targetPoint" />
          </mxGeometry>
        </mxCell>
        <mxCell id="7es2Og_TsPADrQwQ1PT1-21" value="" style="endArrow=none;html=1;rounded=0;exitX=0.558;exitY=0.033;exitDx=0;exitDy=0;exitPerimeter=0;" parent="1" source="7es2Og_TsPADrQwQ1PT1-1" edge="1">
          <mxGeometry width="50" height="50" relative="1" as="geometry">
            <mxPoint x="170" y="280" as="sourcePoint" />
            <mxPoint x="220" y="230" as="targetPoint" />
          </mxGeometry>
        </mxCell>
        <mxCell id="7es2Og_TsPADrQwQ1PT1-22" value="" style="endArrow=none;html=1;rounded=0;exitX=0.858;exitY=0.033;exitDx=0;exitDy=0;exitPerimeter=0;" parent="1" source="7es2Og_TsPADrQwQ1PT1-1" edge="1">
          <mxGeometry width="50" height="50" relative="1" as="geometry">
            <mxPoint x="270" y="300" as="sourcePoint" />
            <mxPoint x="320" y="250" as="targetPoint" />
          </mxGeometry>
        </mxCell>
        <mxCell id="7es2Og_TsPADrQwQ1PT1-24" value="" style="endArrow=none;html=1;rounded=0;exitX=0;exitY=0.75;exitDx=0;exitDy=0;" parent="1" source="7es2Og_TsPADrQwQ1PT1-10" target="7es2Og_TsPADrQwQ1PT1-7" edge="1">
          <mxGeometry width="50" height="50" relative="1" as="geometry">
            <mxPoint x="630" y="190" as="sourcePoint" />
            <mxPoint x="680" y="140" as="targetPoint" />
          </mxGeometry>
        </mxCell>
        <mxCell id="7es2Og_TsPADrQwQ1PT1-25" value="" style="endArrow=none;html=1;rounded=0;exitX=1;exitY=0.5;exitDx=0;exitDy=0;entryX=0.34;entryY=0.957;entryDx=0;entryDy=0;entryPerimeter=0;" parent="1" source="7es2Og_TsPADrQwQ1PT1-10" target="7es2Og_TsPADrQwQ1PT1-8" edge="1">
          <mxGeometry width="50" height="50" relative="1" as="geometry">
            <mxPoint x="860" y="150" as="sourcePoint" />
            <mxPoint x="910" y="100" as="targetPoint" />
          </mxGeometry>
        </mxCell>
        <mxCell id="7es2Og_TsPADrQwQ1PT1-26" value="1" style="text;html=1;align=center;verticalAlign=middle;whiteSpace=wrap;rounded=0;" parent="1" vertex="1">
          <mxGeometry x="250" y="330" width="60" height="30" as="geometry" />
        </mxCell>
        <mxCell id="7es2Og_TsPADrQwQ1PT1-29" value="M" style="text;html=1;align=center;verticalAlign=middle;whiteSpace=wrap;rounded=0;" parent="1" vertex="1">
          <mxGeometry x="760" y="190" width="60" height="30" as="geometry" />
        </mxCell>
        <mxCell id="7es2Og_TsPADrQwQ1PT1-30" value="&lt;u&gt;ID&lt;/u&gt;" style="ellipse;whiteSpace=wrap;html=1;" parent="1" vertex="1">
          <mxGeometry x="30" y="420" width="100" height="70" as="geometry" />
        </mxCell>
        <mxCell id="7es2Og_TsPADrQwQ1PT1-31" value="" style="endArrow=none;html=1;rounded=0;exitX=1;exitY=0.5;exitDx=0;exitDy=0;" parent="1" source="7es2Og_TsPADrQwQ1PT1-30" edge="1">
          <mxGeometry width="50" height="50" relative="1" as="geometry">
            <mxPoint x="150" y="440" as="sourcePoint" />
            <mxPoint x="200" y="390" as="targetPoint" />
          </mxGeometry>
        </mxCell>
        <mxCell id="7es2Og_TsPADrQwQ1PT1-33" value="&lt;u&gt;ID cafe&lt;/u&gt;" style="ellipse;whiteSpace=wrap;html=1;" parent="1" vertex="1">
          <mxGeometry x="720" y="10" width="100" height="70" as="geometry" />
        </mxCell>
        <mxCell id="7es2Og_TsPADrQwQ1PT1-34" value="" style="endArrow=none;html=1;rounded=0;exitX=0.5;exitY=0;exitDx=0;exitDy=0;entryX=0.5;entryY=1;entryDx=0;entryDy=0;" parent="1" source="7es2Og_TsPADrQwQ1PT1-10" target="7es2Og_TsPADrQwQ1PT1-33" edge="1">
          <mxGeometry width="50" height="50" relative="1" as="geometry">
            <mxPoint x="720" y="130" as="sourcePoint" />
            <mxPoint x="770" y="70" as="targetPoint" />
          </mxGeometry>
        </mxCell>
      </root>
    </mxGraphModel>
  </diagram>
</mxfile>
